<svg xmlns="http://www.w3.org/2000/svg" width="53" height="52" fill="none">
  <path fill="#FFBB01" d="m50.52 21.801-8.582 8.572-4.898-4.901 3.702-3.67a.865.865 0 0 0-1.223-1.222l-3.71 3.663-2.445-2.45 8.574-8.572a.865.865 0 0 0 0-1.221.868.868 0 0 0-1.222 0l-9.198 9.186a.865.865 0 0 0 0 1.23l1.23 1.22-1.23 1.23a4.339 4.339 0 0 0-5.453-.554l-.677-.676a4.339 4.339 0 0 0-3.06-1.264c-.542 0-1.08.1-1.587.295l-1.482-1.48.616-.607a.865.865 0 0 0 0-1.23l-8.609-8.57a.868.868 0 0 0-1.222 1.229l7.967 7.957-.616.605-4.335 4.286L10 21.792a.867.867 0 0 0-1.23 1.221l3.068 3.065-1.231 1.22-1.153 1.274-7.967-7.992a.867.867 0 0 0-1.231 1.221l8.582 8.572a.869.869 0 0 0 .616.25.87.87 0 0 0 .616-.25l1.196-1.221 1.222 1.22a4.325 4.325 0 0 0 0 6.122l1.63 1.602a.866.866 0 0 0 1.231-1.221l-1.604-1.602a2.596 2.596 0 0 1 0-3.68l.607-.606 6.138-6.13a2.673 2.673 0 0 1 3.676 0l5.514 5.507a.866.866 0 0 1-1.223 1.22l-3.996-3.99a.874.874 0 0 0-1.231 1.237l3.996 3.992a2.604 2.604 0 0 0 2.84.571 2.597 2.597 0 0 0 .845-4.242l-3.572-3.568a2.68 2.68 0 0 1 2.956.503l7.36 7.35c.485.489.757 1.149.755 1.836a2.595 2.595 0 0 1-.754 1.835l-2.454 2.45-2.514 2.503-1.777 1.784-4.907 4.9a.868.868 0 0 1-1.223 0 .865.865 0 0 1 0-1.22L30.34 42a.865.865 0 0 0-.361-1.499.867.867 0 0 0-.862.279l-5.522 5.506a.866.866 0 0 1-1.222-1.22l5.513-5.507a.864.864 0 0 0 0-1.23.868.868 0 0 0-1.222 0l-5.523 5.516a.867.867 0 0 1-1.222-1.23l5.514-5.507a.864.864 0 0 0 0-1.229.868.868 0 0 0-1.223 0l-5.522 5.515a.868.868 0 0 1-1.227-.004.865.865 0 0 1 .005-1.225l6.666-6.65c.34-.34.34-.89 0-1.229a.871.871 0 0 0-1.23 0l-6.702 6.675a2.595 2.595 0 0 0 0 3.672 2.553 2.553 0 0 0 1.69.761 2.6 2.6 0 0 0 2.454 2.442 2.6 2.6 0 0 0 2.453 2.45c.025.651.294 1.27.755 1.732.781.778 1.97.98 2.964.502l.711.719c.73.73 1.824.958 2.787.583a2.597 2.597 0 0 0 1.652-2.315 2.551 2.551 0 0 0 1.734-.753c.45-.452.719-1.053.754-1.689a2.599 2.599 0 0 0 2.454-2.45 2.6 2.6 0 0 0 2.318-1.65 2.594 2.594 0 0 0-.584-2.783l-.616-.606 1.231-1.23a4.328 4.328 0 0 0 1.266-3.056 4.326 4.326 0 0 0-.79-2.39l1.31-1.306.615.614a.868.868 0 0 0 1.223 0l9.172-9.186a.865.865 0 0 0-.616-1.477.867.867 0 0 0-.615.256Zm-38.006 6.121 5.523-5.506 1.222 1.22-5.514 5.516-1.23-1.23ZM29.68 49.966a.867.867 0 0 1-1.223 0l-.615-.615 1.231-1.22.607.605a.864.864 0 0 1 0 1.23Zm2.453-2.45a.868.868 0 0 1-1.222 0l-.572-.615.615-.615.607-.606.616.606a.867.867 0 0 1 0 1.23h-.044Zm2.454-2.45a.868.868 0 0 1-1.223 0l-.615-.616 1.222-1.22.616.615a.865.865 0 0 1 0 1.22Zm2.453-2.45a.869.869 0 0 1-1.23 0L35.201 42l1.205-1.22.616.614c.34.333.348.879.017 1.221Zm1.222-11.023-5.513-5.506 1.222-1.22 5.523 5.506-1.232 1.22Z"/>
  <path fill="#FFBB01" d="M16.464 13.853h19.068a.866.866 0 0 0 .867-.866V.866A.866.866 0 0 0 35.532 0H16.464a.866.866 0 0 0-.866.866v12.121c0 .478.388.866.866.866Zm.867-3.463c.957 0 1.733.775 1.733 1.731h-1.733V10.39Zm17.335 1.731h-1.734c0-.956.776-1.731 1.733-1.731v1.731Zm0-8.658a1.733 1.733 0 0 1-1.734-1.731h1.733v1.731Zm0 1.732v3.463a3.465 3.465 0 0 0-3.467 3.463H20.798a3.465 3.465 0 0 0-3.467-3.463V5.195a3.465 3.465 0 0 0 3.467-3.463h10.4a3.465 3.465 0 0 0 3.468 3.463ZM17.33 1.732h1.733c0 .956-.776 1.731-1.733 1.731V1.732Z"/>
  <path fill="#FFBB01" d="M25.997 10.39a3.465 3.465 0 0 0 3.467-3.464 3.465 3.465 0 0 0-3.466-3.463 3.465 3.465 0 0 0-3.467 3.463 3.465 3.465 0 0 0 3.466 3.464Zm0-5.195A1.733 1.733 0 1 1 26 8.66a1.733 1.733 0 0 1-.002-3.465ZM32.932 6.926a.866.866 0 1 1-1.733 0 .866.866 0 0 1 1.733 0ZM20.797 6.926a.866.866 0 1 1-1.732 0 .866.866 0 0 1 1.732 0ZM51.853 5.584 48.386.39a.867.867 0 0 0-1.44 0L43.48 5.584a.864.864 0 0 0-.147.476v3.464a.866.866 0 0 0 1.733 0V6.32l2.6-3.896 2.6 3.896v9.264a.866.866 0 0 0 1.734 0V6.06a.864.864 0 0 0-.147-.476Z"/>
  <path fill="#FFBB01" d="M48.533 12.121V6.926a.866.866 0 0 0-1.733 0v5.195a.866.866 0 0 0 1.733 0ZM.863 7.792h.867v10.39a.866.866 0 0 0 1.733 0V6.926a.866.866 0 0 0-.867-.865h-.052l2.652-3.706L7.85 6.061h-.052a.866.866 0 0 0-.867.865v1.732a.866.866 0 0 0 1.733 0v-.866h.867a.867.867 0 0 0 .702-1.368L5.9.364a.867.867 0 0 0-1.405 0L.161 6.423a.865.865 0 0 0 .702 1.368Z"/>
  <path fill="#FFBB01" d="M5.196 12.121v2.598a.866.866 0 0 0 1.733 0V12.12a.866.866 0 0 0-1.733 0Z"/>
</svg>
